<svg xmlns="http://www.w3.org/2000/svg" width="640" height="400" viewBox="0 0 640 400" role="img" aria-label="Restaurant Premium thumbnail">
  <defs>
    <linearGradient id="hero-restaurant-premium" x1="0" y1="0" x2="1" y2="1">
      <stop offset="0%" stop-color="#1B3D2F"/>
      <stop offset="100%" stop-color="#D4A574"/>
    </linearGradient>
  </defs>
  <rect width="640" height="400" fill="#0A1210"/>
  <rect x="0" y="0" width="640" height="56" fill="#1B3D2F" opacity="0.95"/>
  <circle cx="28" cy="28" r="10" fill="#D4A574" opacity="0.9"/>
  <rect x="48" y="22" width="80" height="12" rx="4" fill="#fff" opacity="0.85"/>
  <rect x="480" y="20" width="96" height="16" rx="8" fill="url(#hero-restaurant-premium)"/>
  <rect x="0" y="56" width="72" height="344" fill="#121F1A" opacity="0.95"/>
       <rect x="12" y="80" width="48" height="4" rx="2" fill="#D4A574" opacity="0.5"/>
       <rect x="12" y="96" width="40" height="3" rx="1.5" fill="rgba(244,237,228,0.08)"/>
       <rect x="12" y="108" width="44" height="3" rx="1.5" fill="rgba(244,237,228,0.08)"/>
       <rect x="12" y="120" width="36" height="3" rx="1.5" fill="rgba(244,237,228,0.08)"/>
  <rect x="88" y="88" width="200" height="10" rx="4" fill="#D4A574" opacity="0.55"/>
  <rect x="88" y="112" width="320" height="28" rx="6" fill="#F4EDE4" opacity="0.18"/>
  <rect x="88" y="152" width="260" height="20" rx="5" fill="#F4EDE4" opacity="0.1"/>
  <rect x="88" y="188" width="140" height="36" rx="18" fill="url(#hero-restaurant-premium)"/>
  <rect x="88" y="188" width="140" height="36" rx="18" fill="none" stroke="#D4A574" stroke-width="1.5" transform="translate(156 0)"/>
  <rect x="88" y="260" width="520" height="88" rx="10" fill="#121F1A" stroke="rgba(244,237,228,0.08)" stroke-width="1"/>
  <rect x="104" y="280" width="120" height="48" rx="6" fill="rgba(244,237,228,0.08)"/>
  <rect x="240" y="280" width="120" height="48" rx="6" fill="rgba(244,237,228,0.08)"/>
  <rect x="376" y="280" width="120" height="48" rx="6" fill="rgba(244,237,228,0.08)"/>
  <text x="48" y="36" fill="#fff" font-family="system-ui,sans-serif" font-size="13" font-weight="600">Restaurant Premium</text>
</svg>