<svg xmlns="http://www.w3.org/2000/svg" width="720" height="420" viewBox="0 0 720 420" fill="none">
  <rect width="720" height="420" rx="36" fill="#070707"/>
  <circle cx="180" cy="92" r="150" fill="#D4AF37" opacity=".12"/>
  <rect x="86" y="78" width="548" height="270" rx="28" fill="#111" stroke="#D4AF37" stroke-opacity=".38" stroke-width="2"/>
  <rect x="120" y="118" width="222" height="184" rx="22" fill="#0B0B0B"/>
  <rect x="378" y="118" width="222" height="184" rx="22" fill="#0B0B0B"/>
  <rect x="150" y="150" width="96" height="22" rx="8" fill="#D4AF37"/>
  <rect x="150" y="196" width="150" height="12" rx="6" fill="#fff" opacity=".24"/>
  <rect x="150" y="222" width="118" height="12" rx="6" fill="#fff" opacity=".16"/>
  <circle cx="278" cy="260" r="24" fill="#D4AF37" opacity=".22" stroke="#D4AF37" stroke-width="2"/>
  <path d="M430 244c34-44 74-46 120-16" stroke="#FFD700" stroke-width="5" stroke-linecap="round"/>
  <rect x="430" y="150" width="112" height="22" rx="8" fill="#D4AF37" opacity=".82"/>
  <rect x="430" y="190" width="136" height="12" rx="6" fill="#fff" opacity=".22"/>
  <path d="M538 266 578 246l-16 42-10-14-14 12-8-10 14-12-6-18Z" fill="#D4AF37"/>
</svg>
