<svg xmlns="http://www.w3.org/2000/svg" width="720" height="420" viewBox="0 0 720 420" fill="none">
  <rect width="720" height="420" rx="36" fill="#070707"/>
  <circle cx="180" cy="110" r="160" fill="#D4AF37" opacity=".12"/>
  <rect x="86" y="78" width="548" height="270" rx="28" fill="#111" stroke="#D4AF37" stroke-opacity=".38" stroke-width="2"/>
  <rect x="122" y="116" width="170" height="194" rx="18" fill="#0B0B0B" stroke="#fff" stroke-opacity=".08"/>
  <rect x="152" y="148" width="110" height="14" rx="7" fill="#D4AF37"/>
  <rect x="152" y="184" width="82" height="10" rx="5" fill="#fff" opacity=".25"/>
  <rect x="152" y="210" width="104" height="10" rx="5" fill="#fff" opacity=".17"/>
  <rect x="152" y="236" width="72" height="10" rx="5" fill="#fff" opacity=".14"/>
  <rect x="330" y="120" width="250" height="180" rx="20" fill="#0B0B0B"/>
  <path d="M360 260V218M420 260V180M480 260V205M540 260V150" stroke="#D4AF37" stroke-width="18" stroke-linecap="round"/>
  <path d="M356 170c54 42 102 14 160-30" stroke="#FFD700" stroke-width="4" stroke-linecap="round"/>
</svg>
