<svg xmlns="http://www.w3.org/2000/svg" width="720" height="420" viewBox="0 0 720 420" fill="none">
  <rect width="720" height="420" rx="36" fill="#070707"/>
  <circle cx="520" cy="110" r="170" fill="#D4AF37" opacity=".13"/>
  <rect x="92" y="78" width="536" height="270" rx="28" fill="#111" stroke="#D4AF37" stroke-opacity=".38" stroke-width="2"/>
  <rect x="124" y="112" width="292" height="202" rx="22" fill="#0C0C0C"/>
  <path d="M124 270 200 200l58 48 56-70 102 92v44H124v-44Z" fill="#D4AF37" opacity=".28"/>
  <circle cx="340" cy="150" r="28" fill="#FFD700" opacity=".8"/>
  <rect x="448" y="122" width="130" height="16" rx="8" fill="#D4AF37"/>
  <rect x="448" y="158" width="92" height="12" rx="6" fill="#fff" opacity=".28"/>
  <rect x="448" y="184" width="116" height="12" rx="6" fill="#fff" opacity=".18"/>
  <path d="M488 250c34-30 66-30 100 0-34 30-66 30-100 0Z" fill="#D4AF37" opacity=".18" stroke="#D4AF37" stroke-width="2"/>
  <circle cx="538" cy="250" r="18" fill="#D4AF37"/>
</svg>
