<svg xmlns="http://www.w3.org/2000/svg" width="720" height="420" viewBox="0 0 720 420" fill="none">
  <rect width="720" height="420" rx="36" fill="#070707"/>
  <circle cx="180" cy="95" r="150" fill="#D4AF37" opacity=".12"/>
  <rect x="84" y="82" width="552" height="256" rx="28" fill="#111" stroke="#D4AF37" stroke-opacity=".38" stroke-width="2"/>
  <rect x="112" y="112" width="150" height="190" rx="20" fill="#0B0B0B" stroke="#fff" stroke-opacity=".08"/>
  <rect x="286" y="112" width="150" height="190" rx="20" fill="#0B0B0B" stroke="#fff" stroke-opacity=".08"/>
  <rect x="460" y="112" width="150" height="190" rx="20" fill="#0B0B0B" stroke="#fff" stroke-opacity=".08"/>
  <path d="M187 154 230 178v48c0 34-20 54-43 64-23-10-43-30-43-64v-48l43-24Z" fill="#151515" stroke="#D4AF37" stroke-width="3"/>
  <path d="M342 246h38l-19-74-19 74Z" fill="#D4AF37"/>
  <circle cx="535" cy="210" r="48" fill="#D4AF37" opacity=".18" stroke="#D4AF37" stroke-width="3"/>
  <path d="M515 210h40M535 190v40" stroke="#FFD700" stroke-width="5" stroke-linecap="round"/>
  <rect x="142" y="318" width="436" height="14" rx="7" fill="#D4AF37" opacity=".22"/>
</svg>
