<svg xmlns="http://www.w3.org/2000/svg" width="720" height="420" viewBox="0 0 720 420" fill="none">
  <rect width="720" height="420" rx="36" fill="#070707"/>
  <circle cx="540" cy="90" r="160" fill="#D4AF37" opacity=".12"/>
  <rect x="86" y="78" width="548" height="270" rx="28" fill="#111" stroke="#D4AF37" stroke-opacity=".38" stroke-width="2"/>
  <rect x="120" y="114" width="140" height="190" rx="24" fill="#0B0B0B" stroke="#D4AF37" stroke-opacity=".28"/>
  <rect x="290" y="114" width="140" height="190" rx="24" fill="#0B0B0B" stroke="#D4AF37" stroke-opacity=".28"/>
  <rect x="460" y="114" width="140" height="190" rx="24" fill="#0B0B0B" stroke="#D4AF37" stroke-opacity=".28"/>
  <rect x="146" y="146" width="88" height="72" rx="16" fill="#D4AF37" opacity=".22"/>
  <rect x="316" y="146" width="88" height="72" rx="16" fill="#D4AF37" opacity=".18"/>
  <rect x="486" y="146" width="88" height="72" rx="16" fill="#D4AF37" opacity=".16"/>
  <rect x="146" y="238" width="88" height="10" rx="5" fill="#fff" opacity=".26"/>
  <rect x="316" y="238" width="88" height="10" rx="5" fill="#fff" opacity=".26"/>
  <rect x="486" y="238" width="88" height="10" rx="5" fill="#fff" opacity=".26"/>
  <circle cx="190" cy="268" r="10" fill="#D4AF37"/>
  <circle cx="360" cy="268" r="10" fill="#D4AF37"/>
  <circle cx="530" cy="268" r="10" fill="#D4AF37"/>
</svg>
