<svg xmlns="http://www.w3.org/2000/svg" width="720" height="420" viewBox="0 0 720 420" fill="none">
  <rect width="720" height="420" rx="36" fill="#070707"/>
  <circle cx="160" cy="90" r="150" fill="#D4AF37" opacity=".12"/>
  <rect x="86" y="80" width="548" height="270" rx="28" fill="#111" stroke="#D4AF37" stroke-opacity=".38" stroke-width="2"/>
  <rect x="116" y="112" width="292" height="144" rx="20" fill="#0B0B0B"/>
  <path d="m238 156 74 43-74 43v-86Z" fill="#D4AF37"/>
  <rect x="438" y="112" width="150" height="34" rx="12" fill="#D4AF37" opacity=".9"/>
  <rect x="438" y="166" width="112" height="12" rx="6" fill="#fff" opacity=".26"/>
  <rect x="438" y="194" width="138" height="12" rx="6" fill="#fff" opacity=".16"/>
  <rect x="118" y="286" width="470" height="18" rx="9" fill="#1A1A1A"/>
  <rect x="134" y="290" width="150" height="10" rx="5" fill="#D4AF37"/>
  <rect x="300" y="290" width="86" height="10" rx="5" fill="#8F6F16"/>
  <rect x="404" y="290" width="122" height="10" rx="5" fill="#D4AF37" opacity=".6"/>
  <line x1="360" y1="274" x2="360" y2="318" stroke="#FFD700" stroke-width="3" stroke-linecap="round"/>
</svg>
