<svg xmlns="http://www.w3.org/2000/svg" width="720" height="420" viewBox="0 0 720 420" fill="none">
  <rect width="720" height="420" rx="36" fill="#070707"/>
  <circle cx="560" cy="80" r="170" fill="#D4AF37" opacity=".13"/>
  <rect x="88" y="82" width="420" height="246" rx="22" fill="#111" stroke="#D4AF37" stroke-opacity=".42" stroke-width="2"/>
  <rect x="108" y="106" width="380" height="42" rx="12" fill="#1A1A1A"/>
  <circle cx="132" cy="127" r="6" fill="#D4AF37"/>
  <circle cx="154" cy="127" r="6" fill="#8F6F16"/>
  <circle cx="176" cy="127" r="6" fill="#4F3B0E"/>
  <rect x="124" y="178" width="160" height="22" rx="6" fill="#F4D56A"/>
  <rect x="124" y="214" width="238" height="12" rx="6" fill="#fff" opacity=".28"/>
  <rect x="124" y="238" width="204" height="12" rx="6" fill="#fff" opacity=".18"/>
  <rect x="390" y="176" width="76" height="96" rx="16" fill="#D4AF37" opacity=".2"/>
  <path d="M408 222h40M428 202v40" stroke="#FFD700" stroke-width="5" stroke-linecap="round"/>
  <rect x="458" y="154" width="120" height="206" rx="26" fill="#0D0D0D" stroke="#D4AF37" stroke-opacity=".5" stroke-width="2"/>
  <rect x="476" y="184" width="84" height="22" rx="8" fill="#D4AF37" opacity=".9"/>
  <rect x="476" y="224" width="84" height="12" rx="6" fill="#fff" opacity=".25"/>
  <rect x="476" y="250" width="60" height="12" rx="6" fill="#fff" opacity=".16"/>
  <rect x="120" y="330" width="380" height="18" rx="9" fill="#D4AF37" opacity=".22"/>
</svg>
