<svg xmlns="http://www.w3.org/2000/svg" width="1440" height="900" viewBox="0 0 1440 900" role="img" aria-label="Haven Desktop preview">
  <defs>
    <linearGradient id="plum-1440" x1="0%" y1="0%" x2="100%" y2="100%">
      <stop offset="0%" stop-color="#2A2340"/>
      <stop offset="100%" stop-color="#4E3D6B"/>
    </linearGradient>
    <linearGradient id="img-1440" x1="0%" y1="0%" x2="0%" y2="100%">
      <stop offset="0%" stop-color="#E8E0F8"/>
      <stop offset="100%" stop-color="#D8CFE8"/>
    </linearGradient>
  </defs>
  <rect width="1440" height="900" fill="#E6E0F5"/>
  <rect x="200" y="32" width="1040" height="56" rx="28" fill="#F9F7FD" stroke="rgba(78,61,107,0.12)" stroke-width="1"/>
  <rect x="232" y="50" width="72" height="14" rx="4" fill="#1A1228" opacity="0.85"/>
  <rect x="1120" y="44" width="96" height="32" rx="16" fill="url(#plum-1440)"/>
  <rect x="120" y="160" width="88" height="8" rx="4" fill="#4E3D6B" opacity="0.9"/>
  <rect x="120" y="188" width="420" height="52" rx="6" fill="#1A1228" opacity="0.1"/>
  <rect x="120" y="260" width="32" height="4" rx="2" fill="#FF5C8A"/>
  <rect x="120" y="284" width="340" height="16" rx="4" fill="#1A1228" opacity="0.07"/>
  <rect x="120" y="332" width="128" height="40" rx="20" fill="url(#plum-1440)"/>
  <rect x="264" y="332" width="128" height="40" rx="20" fill="#F9F7FD" stroke="rgba(255,92,138,0.28)" stroke-width="1.5"/>
  <rect x="120" y="396" width="200" height="32" rx="16" fill="#D8CFE8" stroke="rgba(78,61,107,0.08)" stroke-width="1"/>
  <rect x="760" y="140" width="520" height="380" rx="20" fill="url(#img-1440)" stroke="rgba(78,61,107,0.1)" stroke-width="1"/>
  <rect x="120" y="580" width="1160" height="200" rx="16" fill="#D8CFE8"/>
  <rect x="160" y="620" width="240" height="120" rx="12" fill="#F9F7FD" stroke="rgba(78,61,107,0.08)" stroke-width="1"/>
  <rect x="440" y="620" width="240" height="120" rx="12" fill="#F9F7FD" stroke="rgba(78,61,107,0.08)" stroke-width="1"/>
  <rect x="720" y="620" width="240" height="120" rx="12" fill="#F9F7FD" stroke="rgba(78,61,107,0.08)" stroke-width="1"/>
  <rect x="1000" y="620" width="240" height="120" rx="12" fill="#F9F7FD" stroke="rgba(78,61,107,0.08)" stroke-width="1"/>
  <rect x="120" y="820" width="1200" height="48" rx="20" fill="url(#plum-1440)"/>
</svg>
